<svg width="18" height="21" viewBox="0 0 18 21" fill="none" xmlns="http://www.w3.org/2000/svg">
<path d="M0.360107 3.9043C0.360107 3.41211 0.506592 3.02539 0.799561 2.74414C1.09839 2.46289 1.49976 2.32227 2.00366 2.32227H3.67358C3.76733 1.86523 3.97827 1.51074 4.3064 1.25879C4.64038 1.00098 5.07983 0.87207 5.62476 0.87207H12.7C13.2507 0.87207 13.6902 1.00098 14.0183 1.25879C14.3464 1.51074 14.5574 1.86523 14.6511 2.32227H16.321C16.825 2.32227 17.2234 2.46289 17.5164 2.74414C17.8152 3.02539 17.9646 3.41211 17.9646 3.9043C17.9646 5.09375 17.7683 6.14551 17.3757 7.05957C16.9832 7.96777 16.3943 8.74121 15.6091 9.37988C14.8298 10.0127 13.8572 10.5107 12.6912 10.874C12.4099 11.2256 12.114 11.542 11.8035 11.8232C11.4929 12.1045 11.1824 12.3447 10.8718 12.5439V16.1914H12.2429C12.8757 16.1914 13.3591 16.3672 13.6931 16.7188C14.0271 17.0645 14.1941 17.5391 14.1941 18.1426V19.6367C14.1941 19.8711 14.115 20.0615 13.9568 20.208C13.7986 20.3545 13.6082 20.4277 13.3855 20.4277H4.93042C4.71362 20.4277 4.52612 20.3545 4.36792 20.208C4.20972 20.0615 4.13062 19.8711 4.13062 19.6367V18.1426C4.13062 17.5391 4.29761 17.0645 4.63159 16.7188C4.96558 16.3672 5.44604 16.1914 6.073 16.1914H7.45288V12.5439C7.14233 12.3447 6.83179 12.1045 6.52124 11.8232C6.21069 11.542 5.91187 11.2256 5.62476 10.874C4.45874 10.5107 3.48608 10.0127 2.70679 9.37988C1.92749 8.74121 1.34155 7.96777 0.948975 7.05957C0.556396 6.14551 0.360107 5.09375 0.360107 3.9043ZM1.82788 4.10645C1.82788 5.23145 2.04468 6.18945 2.47827 6.98047C2.91187 7.77148 3.54761 8.38965 4.3855 8.83496C4.14526 8.33691 3.95483 7.80664 3.81421 7.24414C3.67358 6.68164 3.60327 6.0957 3.60327 5.48633V3.86035H2.07397C2.00366 3.86035 1.94507 3.88672 1.89819 3.93945C1.85132 3.98633 1.82788 4.04199 1.82788 4.10645ZM13.9392 8.83496C14.7771 8.38965 15.4128 7.77148 15.8464 6.98047C16.28 6.18945 16.4968 5.23145 16.4968 4.10645C16.4968 4.04199 16.4734 3.98633 16.4265 3.93945C16.3796 3.88672 16.321 3.86035 16.2507 3.86035H14.7214V5.48633C14.7214 6.0957 14.6482 6.68164 14.5017 7.24414C14.3611 7.80664 14.1736 8.33691 13.9392 8.83496Z" fill="white"/>
</svg>
