<svg width="20" height="19" viewBox="0 0 20 19" fill="none" xmlns="http://www.w3.org/2000/svg">
<path d="M9.99121 18.7334C8.74902 18.7334 7.58008 18.4961 6.48438 18.0215C5.38867 17.5527 4.42188 16.8994 3.58398 16.0615C2.75195 15.2236 2.09863 14.2568 1.62402 13.1611C1.14941 12.0654 0.912109 10.8965 0.912109 9.6543C0.912109 8.41211 1.14941 7.24316 1.62402 6.14746C2.09863 5.05176 2.75195 4.08789 3.58398 3.25586C4.42188 2.41797 5.38574 1.76172 6.47559 1.28711C7.57129 0.8125 8.74023 0.575195 9.98242 0.575195C11.2305 0.575195 12.4023 0.8125 13.498 1.28711C14.5938 1.76172 15.5605 2.41797 16.3984 3.25586C17.2363 4.08789 17.8926 5.05176 18.3672 6.14746C18.8418 7.24316 19.0791 8.41211 19.0791 9.6543C19.0791 10.8965 18.8418 12.0654 18.3672 13.1611C17.8926 14.2568 17.2363 15.2236 16.3984 16.0615C15.5605 16.8994 14.5938 17.5527 13.498 18.0215C12.4023 18.4961 11.2334 18.7334 9.99121 18.7334ZM9.99121 14.7871C10.1084 14.7871 10.2051 14.749 10.2812 14.6729C10.3633 14.5967 10.4043 14.4941 10.4043 14.3652V13.7588C11.1484 13.6885 11.7666 13.4512 12.2588 13.0469C12.751 12.6367 12.9971 12.083 12.9971 11.3857C12.9971 10.7646 12.7949 10.2666 12.3906 9.8916C11.9922 9.5166 11.3975 9.25586 10.6064 9.10938L10.4043 9.06543V6.78906C10.6973 6.8418 10.9434 6.95313 11.1426 7.12305C11.3418 7.28711 11.4854 7.50391 11.5732 7.77344C11.708 8.0957 11.9248 8.25684 12.2236 8.25684C12.4111 8.25684 12.5605 8.20117 12.6719 8.08984C12.7891 7.97852 12.8477 7.83496 12.8477 7.65918C12.8477 7.60645 12.8418 7.55371 12.8301 7.50098C12.8242 7.44824 12.8125 7.39844 12.7949 7.35156C12.6719 6.87695 12.3965 6.48145 11.9688 6.16504C11.541 5.84863 11.0195 5.6582 10.4043 5.59375V4.9873C10.4043 4.8584 10.3633 4.75586 10.2812 4.67969C10.2051 4.60352 10.1084 4.56543 9.99121 4.56543C9.86816 4.56543 9.76562 4.60352 9.68359 4.67969C9.60742 4.75586 9.56934 4.8584 9.56934 4.9873V5.59375C8.85449 5.66406 8.26562 5.9043 7.80273 6.31445C7.33984 6.72461 7.1084 7.25195 7.1084 7.89648C7.1084 8.48828 7.30469 8.96582 7.69727 9.3291C8.08984 9.68652 8.66699 9.95312 9.42871 10.1289L9.56934 10.1641V12.5723C9.2002 12.5195 8.90723 12.3994 8.69043 12.2119C8.47949 12.0244 8.33594 11.7988 8.25977 11.5352C8.19531 11.3652 8.11035 11.2422 8.00488 11.166C7.89941 11.084 7.76758 11.043 7.60938 11.043C7.42188 11.043 7.26953 11.1016 7.15234 11.2188C7.04102 11.3301 6.98535 11.4766 6.98535 11.6582C6.98535 11.7109 6.98828 11.7637 6.99414 11.8164C7.00586 11.8691 7.02051 11.9219 7.03809 11.9746C7.16699 12.4668 7.45703 12.8711 7.9082 13.1875C8.36523 13.5039 8.91895 13.6885 9.56934 13.7412V14.3652C9.56934 14.4941 9.60742 14.5967 9.68359 14.6729C9.76562 14.749 9.86816 14.7871 9.99121 14.7871ZM9.56934 8.85449L9.50781 8.83691C9.14453 8.72559 8.875 8.58789 8.69922 8.42383C8.5293 8.25977 8.44434 8.05469 8.44434 7.80859C8.44434 7.55664 8.54395 7.33691 8.74316 7.14941C8.94824 6.95605 9.22363 6.83301 9.56934 6.78027V8.85449ZM10.4043 10.3662L10.5801 10.4102C10.9785 10.5156 11.2568 10.6562 11.415 10.832C11.5791 11.002 11.6611 11.2188 11.6611 11.4824C11.6611 11.7695 11.5557 12.0127 11.3447 12.2119C11.1396 12.4053 10.8262 12.5254 10.4043 12.5723V10.3662Z" fill="white"/>
</svg>
