<svg width="19" height="17" viewBox="0 0 19 17" fill="none" xmlns="http://www.w3.org/2000/svg">
<path d="M3.78644 16.8721C2.83722 16.8721 2.11945 16.6289 1.63312 16.1426C1.14679 15.6621 0.903625 14.9531 0.903625 14.0156V3.31934C0.903625 2.37598 1.14679 1.66406 1.63312 1.18359C2.11945 0.703125 2.83722 0.462891 3.78644 0.462891H15.8802C16.8353 0.462891 17.553 0.703125 18.0335 1.18359C18.5198 1.66406 18.763 2.37598 18.763 3.31934V14.0156C18.763 14.9531 18.5198 15.6621 18.0335 16.1426C17.553 16.6289 16.8353 16.8721 15.8802 16.8721H3.78644ZM3.76886 15.1406H15.889C16.2581 15.1406 16.5394 15.0469 16.7327 14.8594C16.9319 14.666 17.0316 14.3789 17.0316 13.998V5.87695C17.0316 5.49609 16.9319 5.20898 16.7327 5.01562C16.5394 4.82227 16.2581 4.72559 15.889 4.72559H3.76886C3.39972 4.72559 3.11847 4.82227 2.92511 5.01562C2.73175 5.20898 2.63507 5.49609 2.63507 5.87695V13.998C2.63507 14.3789 2.73175 14.666 2.92511 14.8594C3.11847 15.0469 3.39972 15.1406 3.76886 15.1406ZM8.14581 7.78418C7.98761 7.78418 7.87628 7.75488 7.81183 7.69629C7.75323 7.63184 7.72394 7.52344 7.72394 7.37109V6.85254C7.72394 6.69434 7.75323 6.58887 7.81183 6.53613C7.87628 6.47754 7.98761 6.44824 8.14581 6.44824H8.66437C8.81671 6.44824 8.92511 6.47754 8.98956 6.53613C9.05402 6.58887 9.08624 6.69434 9.08624 6.85254V7.37109C9.08624 7.52344 9.05402 7.63184 8.98956 7.69629C8.92511 7.75488 8.81671 7.78418 8.66437 7.78418H8.14581ZM11.011 7.78418C10.8587 7.78418 10.7503 7.75488 10.6859 7.69629C10.6273 7.63184 10.598 7.52344 10.598 7.37109V6.85254C10.598 6.69434 10.6273 6.58887 10.6859 6.53613C10.7503 6.47754 10.8587 6.44824 11.011 6.44824H11.5296C11.6937 6.44824 11.805 6.47754 11.8636 6.53613C11.9222 6.58887 11.9515 6.69434 11.9515 6.85254V7.37109C11.9515 7.52344 11.9222 7.63184 11.8636 7.69629C11.805 7.75488 11.6937 7.78418 11.5296 7.78418H11.011ZM13.8939 7.78418C13.7357 7.78418 13.6243 7.75488 13.5599 7.69629C13.5013 7.63184 13.472 7.52344 13.472 7.37109V6.85254C13.472 6.69434 13.5013 6.58887 13.5599 6.53613C13.6243 6.47754 13.7357 6.44824 13.8939 6.44824H14.4036C14.5677 6.44824 14.679 6.47754 14.7376 6.53613C14.7962 6.58887 14.8255 6.69434 14.8255 6.85254V7.37109C14.8255 7.52344 14.7962 7.63184 14.7376 7.69629C14.679 7.75488 14.5677 7.78418 14.4036 7.78418H13.8939ZM5.27179 10.6055C5.11359 10.6055 5.00226 10.5762 4.93781 10.5176C4.87921 10.459 4.84991 10.3535 4.84991 10.2012V9.68262C4.84991 9.52441 4.87921 9.41602 4.93781 9.35742C5.00226 9.29883 5.11359 9.26953 5.27179 9.26953H5.79034C5.94269 9.26953 6.04816 9.29883 6.10675 9.35742C6.1712 9.41602 6.20343 9.52441 6.20343 9.68262V10.2012C6.20343 10.3535 6.1712 10.459 6.10675 10.5176C6.04816 10.5762 5.94269 10.6055 5.79034 10.6055H5.27179ZM8.14581 10.6055C7.98761 10.6055 7.87628 10.5762 7.81183 10.5176C7.75323 10.459 7.72394 10.3535 7.72394 10.2012V9.68262C7.72394 9.52441 7.75323 9.41602 7.81183 9.35742C7.87628 9.29883 7.98761 9.26953 8.14581 9.26953H8.66437C8.81671 9.26953 8.92511 9.29883 8.98956 9.35742C9.05402 9.41602 9.08624 9.52441 9.08624 9.68262V10.2012C9.08624 10.3535 9.05402 10.459 8.98956 10.5176C8.92511 10.5762 8.81671 10.6055 8.66437 10.6055H8.14581ZM11.011 10.6055C10.8587 10.6055 10.7503 10.5762 10.6859 10.5176C10.6273 10.459 10.598 10.3535 10.598 10.2012V9.68262C10.598 9.52441 10.6273 9.41602 10.6859 9.35742C10.7503 9.29883 10.8587 9.26953 11.011 9.26953H11.5296C11.6937 9.26953 11.805 9.29883 11.8636 9.35742C11.9222 9.41602 11.9515 9.52441 11.9515 9.68262V10.2012C11.9515 10.3535 11.9222 10.459 11.8636 10.5176C11.805 10.5762 11.6937 10.6055 11.5296 10.6055H11.011ZM13.8939 10.6055C13.7357 10.6055 13.6243 10.5762 13.5599 10.5176C13.5013 10.459 13.472 10.3535 13.472 10.2012V9.68262C13.472 9.52441 13.5013 9.41602 13.5599 9.35742C13.6243 9.29883 13.7357 9.26953 13.8939 9.26953H14.4036C14.5677 9.26953 14.679 9.29883 14.7376 9.35742C14.7962 9.41602 14.8255 9.52441 14.8255 9.68262V10.2012C14.8255 10.3535 14.7962 10.459 14.7376 10.5176C14.679 10.5762 14.5677 10.6055 14.4036 10.6055H13.8939ZM5.27179 13.4355C5.11359 13.4355 5.00226 13.4092 4.93781 13.3564C4.87921 13.2979 4.84991 13.1865 4.84991 13.0225V12.5127C4.84991 12.3545 4.87921 12.2461 4.93781 12.1875C5.00226 12.1289 5.11359 12.0996 5.27179 12.0996H5.79034C5.94269 12.0996 6.04816 12.1289 6.10675 12.1875C6.1712 12.2461 6.20343 12.3545 6.20343 12.5127V13.0225C6.20343 13.1865 6.1712 13.2979 6.10675 13.3564C6.04816 13.4092 5.94269 13.4355 5.79034 13.4355H5.27179ZM8.14581 13.4355C7.98761 13.4355 7.87628 13.4092 7.81183 13.3564C7.75323 13.2979 7.72394 13.1865 7.72394 13.0225V12.5127C7.72394 12.3545 7.75323 12.2461 7.81183 12.1875C7.87628 12.1289 7.98761 12.0996 8.14581 12.0996H8.66437C8.81671 12.0996 8.92511 12.1289 8.98956 12.1875C9.05402 12.2461 9.08624 12.3545 9.08624 12.5127V13.0225C9.08624 13.1865 9.05402 13.2979 8.98956 13.3564C8.92511 13.4092 8.81671 13.4355 8.66437 13.4355H8.14581ZM11.011 13.4355C10.8587 13.4355 10.7503 13.4092 10.6859 13.3564C10.6273 13.2979 10.598 13.1865 10.598 13.0225V12.5127C10.598 12.3545 10.6273 12.2461 10.6859 12.1875C10.7503 12.1289 10.8587 12.0996 11.011 12.0996H11.5296C11.6937 12.0996 11.805 12.1289 11.8636 12.1875C11.9222 12.2461 11.9515 12.3545 11.9515 12.5127V13.0225C11.9515 13.1865 11.9222 13.2979 11.8636 13.3564C11.805 13.4092 11.6937 13.4355 11.5296 13.4355H11.011Z" fill="white"/>
</svg>
